<svg xmlns="http://www.w3.org/2000/svg" xmlns:xlink="http://www.w3.org/1999/xlink" width="80" zoomAndPan="magnify" viewBox="0 0 60 44.999999" height="60" preserveAspectRatio="xMidYMid meet" version="1.0"><path fill="#1a1a18" d="M 9.472656 34.003906 L 9.472656 29.148438 L 7.511719 29.148438 L 7.511719 27.863281 L 12.894531 27.863281 L 12.894531 29.148438 L 10.941406 29.148438 L 10.941406 34.003906 Z M 9.472656 34.003906 " fill-opacity="1" fill-rule="nonzero"/><path fill="#1a1a18" d="M 13.601562 34.003906 L 13.601562 27.863281 L 15.058594 27.863281 L 15.058594 30.121094 L 17.4375 30.121094 L 17.4375 27.863281 L 18.882812 27.863281 L 18.882812 34.003906 L 17.4375 34.003906 L 17.4375 31.429688 L 15.058594 31.429688 L 15.058594 34.003906 Z M 13.601562 34.003906 " fill-opacity="1" fill-rule="nonzero"/><path fill="#1a1a18" d="M 20.304688 34.003906 L 20.304688 27.863281 L 24.101562 27.863281 L 24.101562 29.128906 L 21.730469 29.128906 L 21.730469 30.242188 L 23.761719 30.242188 L 23.761719 31.5 L 21.730469 31.5 L 21.730469 32.710938 L 24.136719 32.710938 L 24.136719 34.003906 Z M 20.304688 34.003906 " fill-opacity="1" fill-rule="nonzero"/><path fill="#1a1a18" d="M 29.121094 32.054688 L 30.738281 32.054688 L 29.941406 30.132812 Z M 26.808594 34.003906 L 29.957031 27.671875 L 30.050781 27.671875 L 33.128906 34.003906 L 31.585938 34.003906 L 31.195312 33.113281 L 28.691406 33.113281 L 28.292969 34.003906 Z M 26.808594 34.003906 " fill-opacity="1" fill-rule="nonzero"/><path fill="#1a1a18" d="M 33.589844 34.003906 L 33.589844 27.863281 L 35.0625 27.863281 L 35.0625 32.6875 L 37.464844 32.6875 L 37.464844 34.003906 Z M 33.589844 34.003906 " fill-opacity="1" fill-rule="nonzero"/><path fill="#1a1a18" d="M 38.1875 34.003906 L 38.1875 27.863281 L 39.660156 27.863281 L 39.660156 32.6875 L 42.066406 32.6875 L 42.066406 34.003906 Z M 38.1875 34.003906 " fill-opacity="1" fill-rule="nonzero"/><path fill="#1a1a18" d="M 42.789062 34.003906 L 42.789062 27.863281 L 46.585938 27.863281 L 46.585938 29.128906 L 44.214844 29.128906 L 44.214844 30.242188 L 46.246094 30.242188 L 46.246094 31.5 L 44.214844 31.5 L 44.214844 32.710938 L 46.621094 32.710938 L 46.621094 34.003906 Z M 42.789062 34.003906 " fill-opacity="1" fill-rule="nonzero"/><path fill="#1a1a18" d="M 48.9375 34.003906 L 48.9375 31.089844 L 46.734375 27.863281 L 48.511719 27.863281 L 49.800781 29.808594 L 51.21875 27.863281 L 52.78125 27.863281 L 50.402344 31.03125 L 50.402344 34.003906 Z M 48.9375 34.003906 " fill-opacity="1" fill-rule="nonzero"/><path fill="#1a1a18" d="M 19.542969 39.054688 L 20.085938 39.054688 L 20.085938 38.101562 L 20.25 38.101562 C 20.472656 38.105469 20.578125 38.183594 20.648438 38.492188 C 20.714844 38.789062 20.777344 38.980469 20.8125 39.054688 L 21.371094 39.054688 C 21.324219 38.960938 21.253906 38.644531 21.179688 38.367188 C 21.117188 38.144531 21.023438 37.988281 20.855469 37.921875 L 20.855469 37.910156 C 21.0625 37.835938 21.28125 37.625 21.28125 37.320312 C 21.28125 37.101562 21.203125 36.929688 21.054688 36.816406 C 20.882812 36.679688 20.632812 36.625 20.273438 36.625 C 19.980469 36.625 19.71875 36.648438 19.542969 36.675781 Z M 20.085938 37.050781 C 20.125 37.042969 20.203125 37.035156 20.335938 37.035156 C 20.585938 37.035156 20.738281 37.148438 20.738281 37.363281 C 20.738281 37.574219 20.574219 37.710938 20.300781 37.710938 L 20.085938 37.710938 Z M 20.085938 37.050781 " fill-opacity="1" fill-rule="nonzero"/><path fill="#1a1a18" d="M 25.003906 37.589844 L 24.109375 37.589844 L 24.109375 37.089844 L 25.054688 37.089844 L 25.054688 36.644531 L 23.566406 36.644531 L 23.566406 39.054688 L 25.105469 39.054688 L 25.105469 38.609375 L 24.109375 38.609375 L 24.109375 38.035156 L 25.003906 38.035156 Z M 25.003906 37.589844 " fill-opacity="1" fill-rule="nonzero"/><path fill="#1a1a18" d="M 28.625 38.4375 L 28.8125 39.054688 L 29.402344 39.054688 L 28.648438 36.644531 L 27.929688 36.644531 L 27.195312 39.054688 L 27.757812 39.054688 L 27.929688 38.4375 Z M 28.011719 38.027344 L 28.152344 37.515625 C 28.191406 37.378906 28.230469 37.195312 28.265625 37.050781 L 28.273438 37.050781 C 28.308594 37.195312 28.351562 37.375 28.394531 37.515625 L 28.546875 38.027344 Z M 28.011719 38.027344 " fill-opacity="1" fill-rule="nonzero"/><path fill="#1a1a18" d="M 31.613281 39.054688 L 33.125 39.054688 L 33.125 38.597656 L 32.160156 38.597656 L 32.160156 36.644531 L 31.613281 36.644531 Z M 31.613281 39.054688 " fill-opacity="1" fill-rule="nonzero"/><path fill="#1a1a18" d="M 35.429688 39.054688 L 35.976562 39.054688 L 35.976562 37.101562 L 36.636719 37.101562 L 36.636719 36.644531 L 34.777344 36.644531 L 34.777344 37.101562 L 35.429688 37.101562 Z M 35.429688 39.054688 " fill-opacity="1" fill-rule="nonzero"/><path fill="#1a1a18" d="M 39.949219 39.054688 L 39.949219 38.050781 L 40.746094 36.644531 L 40.132812 36.644531 L 39.886719 37.222656 C 39.816406 37.394531 39.757812 37.535156 39.703125 37.683594 L 39.695312 37.683594 C 39.640625 37.527344 39.585938 37.398438 39.507812 37.222656 L 39.265625 36.644531 L 38.636719 36.644531 L 39.402344 38.066406 L 39.402344 39.054688 Z M 39.949219 39.054688 " fill-opacity="1" fill-rule="nonzero"/><path fill="#1a1a18" d="M 30.824219 7.167969 L 30.058594 5.878906 C 26.828125 11.507812 23.539062 17.117188 20.28125 22.734375 L 19.523438 24.039062 C 22.019531 24.039062 24.511719 24.039062 27.003906 24.039062 L 27.761719 22.734375 L 30.054688 18.777344 L 33.105469 24.039062 L 34.621094 24.039062 L 30.054688 16.167969 L 26.246094 22.734375 L 24.851562 22.734375 L 28.601562 16.269531 C 29.855469 14.105469 31.113281 11.9375 32.367188 9.773438 L 31.601562 8.484375 C 28.847656 13.234375 26.09375 17.984375 23.339844 22.734375 L 21.796875 22.734375 C 24.804688 17.542969 27.816406 12.355469 30.824219 7.167969 Z M 31.554688 24.039062 L 30.8125 22.757812 L 30.054688 21.453125 L 29.296875 22.757812 L 28.558594 24.039062 C 29.554688 24.039062 30.554688 24.039062 31.554688 24.039062 Z M 39.253906 24.039062 L 40.769531 24.039062 L 33.074219 10.960938 L 32.371094 12.175781 Z M 36.035156 24.039062 L 37.546875 24.039062 L 31.519531 13.644531 L 30.761719 14.949219 Z M 36.035156 24.039062 " fill-opacity="1" fill-rule="evenodd"/></svg>