<svg xmlns="http://www.w3.org/2000/svg" xmlns:xlink="http://www.w3.org/1999/xlink" width="65"
  zoomAndPan="magnify" viewBox="0 0 48.75 48.749998" height="65" preserveAspectRatio="xMidYMid meet"
  version="1.0">
  <defs>
    <clipPath id="e326933753">
      <path d="M 0 0.0078125 L 48.5 0.0078125 L 48.5 48.5 L 0 48.5 Z M 0 0.0078125 "
        clip-rule="nonzero" />
    </clipPath>
  </defs>
  <g clip-path="url(#e326933753)">
    <path fill="#ffe600"
      d="M 24.246094 0.882812 C 37.15625 0.882812 47.625 11.347656 47.625 24.257812 C 47.625 37.167969 37.15625 47.632812 24.246094 47.632812 C 11.335938 47.632812 0.871094 37.167969 0.871094 24.257812 C 0.871094 11.347656 11.335938 0.882812 24.246094 0.882812 Z M 24.246094 0.0078125 C 10.855469 0.0078125 0 10.863281 0 24.257812 C 0 37.652344 10.855469 48.507812 24.246094 48.507812 C 37.640625 48.507812 48.496094 37.652344 48.496094 24.257812 C 48.496094 10.863281 37.640625 0.0078125 24.246094 0.0078125 Z M 35.871094 13.46875 L 35.871094 23.609375 L 33.011719 21.765625 L 27.609375 25.121094 L 26.699219 25.6875 L 26.167969 26.015625 L 26.167969 10.464844 L 20.023438 14.269531 L 20.023438 20.960938 L 18.582031 19.988281 L 18.582031 13.46875 L 27.609375 7.875 Z M 4.066406 24.257812 C 4.066406 13.109375 13.101562 4.074219 24.25 4.074219 C 35.394531 4.074219 44.429688 13.109375 44.429688 24.257812 C 44.429688 29.410156 42.5 34.105469 39.324219 37.671875 L 39.324219 26.925781 L 33.035156 22.667969 L 26.167969 26.925781 L 26.167969 44.347656 C 25.535156 44.40625 24.894531 44.441406 24.25 44.441406 C 23.601562 44.441406 22.960938 44.40625 22.328125 44.347656 L 22.328125 23.5 L 16.042969 19.242188 L 9.171875 23.5 L 9.171875 37.671875 C 5.996094 34.105469 4.066406 29.410156 4.066406 24.257812 Z M 10.269531 24.109375 L 14.945312 21.214844 L 14.945312 42.167969 C 13.226562 41.273438 11.652344 40.136719 10.269531 38.808594 Z M 27.261719 27.535156 L 31.9375 24.636719 L 31.9375 42.921875 C 30.460938 43.53125 28.894531 43.972656 27.261719 44.214844 Z M 2.042969 24.257812 C 2.042969 36.523438 11.984375 46.464844 24.25 46.464844 C 36.511719 46.464844 46.453125 36.523438 46.453125 24.257812 C 46.453125 11.992188 36.511719 2.050781 24.25 2.050781 C 11.984375 2.050781 2.042969 11.992188 2.042969 24.257812 "
      fill-opacity="1" fill-rule="nonzero" />
  </g>
</svg>