<svg xmlns="http://www.w3.org/2000/svg" xmlns:xlink="http://www.w3.org/1999/xlink" width="130"
  zoomAndPan="magnify" viewBox="0 0 97.5 74.999997" height="100" preserveAspectRatio="xMidYMid meet"
  version="1.0">
  <path fill="#ffcc01"
    d="M 13.238281 55.085938 L 13.238281 47.597656 L 10.214844 47.597656 L 10.214844 45.617188 L 18.523438 45.617188 L 18.523438 47.597656 L 15.511719 47.597656 L 15.511719 55.085938 Z M 13.238281 55.085938 "
    fill-opacity="1" fill-rule="nonzero" />
  <path fill="#ffcc01"
    d="M 19.613281 55.085938 L 19.613281 45.617188 L 21.859375 45.617188 L 21.859375 49.09375 L 25.53125 49.09375 L 25.53125 45.617188 L 27.761719 45.617188 L 27.761719 55.085938 L 25.53125 55.085938 L 25.53125 51.113281 L 21.859375 51.113281 L 21.859375 55.085938 Z M 19.613281 55.085938 "
    fill-opacity="1" fill-rule="nonzero" />
  <path fill="#ffcc01"
    d="M 29.953125 55.085938 L 29.953125 45.617188 L 35.816406 45.617188 L 35.816406 47.570312 L 32.160156 47.570312 L 32.160156 49.28125 L 35.292969 49.28125 L 35.292969 51.222656 L 32.160156 51.222656 L 32.160156 53.09375 L 35.871094 53.09375 L 35.871094 55.085938 Z M 29.953125 55.085938 "
    fill-opacity="1" fill-rule="nonzero" />
  <path fill="#ffcc01"
    d="M 43.558594 52.078125 L 46.058594 52.078125 L 44.824219 49.113281 Z M 39.996094 55.085938 L 44.851562 45.324219 L 44.996094 45.324219 L 49.742188 55.085938 L 47.367188 55.085938 L 46.761719 53.710938 L 42.898438 53.710938 L 42.285156 55.085938 Z M 39.996094 55.085938 "
    fill-opacity="1" fill-rule="nonzero" />
  <path fill="#ffcc01"
    d="M 50.457031 55.085938 L 50.457031 45.617188 L 52.730469 45.617188 L 52.730469 53.054688 L 56.441406 53.054688 L 56.441406 55.085938 Z M 50.457031 55.085938 "
    fill-opacity="1" fill-rule="nonzero" />
  <path fill="#ffcc01"
    d="M 57.554688 55.085938 L 57.554688 45.617188 L 59.824219 45.617188 L 59.824219 53.054688 L 63.535156 53.054688 L 63.535156 55.085938 Z M 57.554688 55.085938 "
    fill-opacity="1" fill-rule="nonzero" />
  <path fill="#ffcc01"
    d="M 64.652344 55.085938 L 64.652344 45.617188 L 70.511719 45.617188 L 70.511719 47.570312 L 66.855469 47.570312 L 66.855469 49.28125 L 69.988281 49.28125 L 69.988281 51.222656 L 66.855469 51.222656 L 66.855469 53.09375 L 70.566406 53.09375 L 70.566406 55.085938 Z M 64.652344 55.085938 "
    fill-opacity="1" fill-rule="nonzero" />
  <path fill="#ffcc01"
    d="M 74.140625 55.085938 L 74.140625 50.59375 L 70.738281 45.617188 L 73.480469 45.617188 L 75.46875 48.617188 L 77.660156 45.617188 L 80.070312 45.617188 L 76.398438 50.5 L 76.398438 55.085938 Z M 74.140625 55.085938 "
    fill-opacity="1" fill-rule="nonzero" />
  <path fill="#ffcc01"
    d="M 28.78125 62.875 L 29.621094 62.875 L 29.621094 61.40625 L 29.871094 61.40625 C 30.21875 61.410156 30.378906 61.53125 30.484375 62.003906 C 30.589844 62.464844 30.683594 62.761719 30.742188 62.875 L 31.605469 62.875 C 31.53125 62.730469 31.421875 62.242188 31.304688 61.816406 C 31.210938 61.472656 31.066406 61.230469 30.808594 61.125 L 30.808594 61.109375 C 31.128906 60.992188 31.464844 60.667969 31.464844 60.203125 C 31.464844 59.859375 31.34375 59.597656 31.117188 59.421875 C 30.851562 59.210938 30.464844 59.128906 29.910156 59.128906 C 29.453125 59.128906 29.054688 59.160156 28.78125 59.207031 Z M 29.621094 59.785156 C 29.679688 59.769531 29.796875 59.757812 30.003906 59.757812 C 30.390625 59.757812 30.625 59.933594 30.625 60.265625 C 30.625 60.589844 30.375 60.800781 29.953125 60.800781 L 29.621094 60.800781 Z M 29.621094 59.785156 "
    fill-opacity="1" fill-rule="nonzero" />
  <path fill="#ffcc01"
    d="M 37.207031 60.617188 L 35.832031 60.617188 L 35.832031 59.84375 L 37.289062 59.84375 L 37.289062 59.15625 L 34.988281 59.15625 L 34.988281 62.875 L 37.367188 62.875 L 37.367188 62.183594 L 35.832031 62.183594 L 35.832031 61.300781 L 37.207031 61.300781 Z M 37.207031 60.617188 "
    fill-opacity="1" fill-rule="nonzero" />
  <path fill="#ffcc01"
    d="M 42.796875 61.917969 L 43.082031 62.875 L 44 62.875 L 42.835938 59.15625 L 41.726562 59.15625 L 40.589844 62.875 L 41.460938 62.875 L 41.726562 61.917969 Z M 41.847656 61.289062 L 42.070312 60.5 C 42.128906 60.285156 42.183594 60.003906 42.242188 59.785156 L 42.253906 59.785156 C 42.308594 60.003906 42.375 60.28125 42.441406 60.5 L 42.671875 61.289062 Z M 41.847656 61.289062 "
    fill-opacity="1" fill-rule="nonzero" />
  <path fill="#ffcc01"
    d="M 47.410156 62.875 L 49.738281 62.875 L 49.738281 62.167969 L 48.25 62.167969 L 48.25 59.15625 L 47.410156 59.15625 Z M 47.410156 62.875 "
    fill-opacity="1" fill-rule="nonzero" />
  <path fill="#ffcc01"
    d="M 53.296875 62.875 L 54.140625 62.875 L 54.140625 59.863281 L 55.160156 59.863281 L 55.160156 59.15625 L 52.289062 59.15625 L 52.289062 59.863281 L 53.296875 59.863281 Z M 53.296875 62.875 "
    fill-opacity="1" fill-rule="nonzero" />
  <path fill="#ffcc01"
    d="M 60.269531 62.875 L 60.269531 61.324219 L 61.5 59.15625 L 60.550781 59.15625 L 60.175781 60.050781 C 60.0625 60.3125 59.972656 60.53125 59.890625 60.761719 L 59.878906 60.761719 C 59.792969 60.519531 59.707031 60.320312 59.59375 60.050781 L 59.214844 59.15625 L 58.246094 59.15625 L 59.425781 61.351562 L 59.425781 62.875 Z M 60.269531 62.875 "
    fill-opacity="1" fill-rule="nonzero" />
  <path fill="#ffcc01"
    d="M 46.1875 13.703125 L 45.007812 11.714844 C 40.019531 20.394531 34.949219 29.042969 29.921875 37.703125 L 28.753906 39.71875 C 32.601562 39.71875 36.449219 39.71875 40.296875 39.71875 L 41.464844 37.703125 L 45.003906 31.605469 L 49.710938 39.71875 L 52.046875 39.71875 L 45.003906 27.578125 L 39.125 37.703125 L 36.972656 37.703125 L 42.757812 27.738281 C 44.695312 24.398438 46.636719 21.058594 48.574219 17.71875 L 47.390625 15.730469 C 43.140625 23.054688 38.890625 30.378906 34.636719 37.703125 L 32.257812 37.703125 C 36.902344 29.703125 41.546875 21.703125 46.1875 13.703125 Z M 47.316406 39.71875 L 46.171875 37.746094 L 45.003906 35.730469 L 43.835938 37.746094 L 42.691406 39.71875 C 44.234375 39.71875 45.773438 39.71875 47.316406 39.71875 Z M 59.195312 39.71875 L 61.535156 39.71875 L 49.660156 19.554688 L 48.578125 21.421875 Z M 54.230469 39.71875 L 56.566406 39.71875 L 47.261719 23.6875 L 46.09375 25.699219 Z M 54.230469 39.71875 "
    fill-opacity="1" fill-rule="evenodd" />
</svg>